 http://www.scenespeeds.com/

Description

CM8 Doing It Right The First Time

Source: Russian Bluray
Staraja.dobraja.orgija.2011
(had english DTS Audio on it)

Video: 720x384 @bitrate 1700 2pass
Audio: English DTS to AC3 5.1 @448
 
http://www.imdb.com/title/tt1231586/

General
Complete name: A.Good.Old.Fashioned.Orgy.2011.RC.BDRip.XVID.AC3.HQ.Hive-CM8.avi
Format: AVI
Format/Info: Audio Video Interleave
File size: 1.43 GiB
Duration: 1h 34mn
Overall bit rate: 2 156 Kbps
Writing application: Nandub v1.0rc2
Writing library: Nandub build 1853/release

Video
ID: 0
Format: MPEG-4 Visual
Format profile: Advanced Simple@L5
Format settings, BVOP: 1
Format settings, QPel: Yes
Format settings, GMC: No warppoints
Format settings, Matrix: Default (H.263)
Muxing mode: Packed bitstream
Codec ID: XVID
Codec ID/Hint: XviD
Duration: 1h 34mn
Bit rate: 1 699 Kbps
Width: 720 pixels
Height: 384 pixels
Display aspect ratio: 1.850
Frame rate: 24.000 fps
Color space: YUV
Chroma subsampling: 4:2:0
Bit depth: 8 bits
Scan type: Progressive
Compression mode: Lossy
Bits/(Pixel*Frame): 0.256
Stream size: 1.12 GiB (79%)
Writing library: XviD 1.2.1 (UTC 2008-12-04)

Audio
ID: 1
Format: AC-3
Format/Info: Audio Coding 3
Mode extension: CM (complete main)
Codec ID: 2000
Duration: 1h 34mn
Bit rate mode: Constant
Bit rate: 448 Kbps
Channel(s): 6 channels
Channel positions: Front: L C R, Side: L R, LFE
Sampling rate: 48.0 KHz
Bit depth: 16 bits
Compression mode: Lossy
Stream size: 303 MiB (21%)
Alignment: Split accross interleaves
Interleave, duration: 42 ms (1.00 video frame)
Interleave, preload duration: 500 ms

Plot:
A group of 30-year-olds who have been friends since
high school attempt to throw an end-of-summer orgy

Cast:
Jason Sudeikis ... Eric Keppler
Tyler Labine ... Mike McCrudden
Leslie Bibb ... Kelly
Lake Bell ... Alison Lobel  
    
http://www.scenespeeds.com/
				